<?xml version="1.0" encoding="utf-8"?>
<!-- Generator: Adobe Illustrator 19.0.0, SVG Export Plug-In . SVG Version: 6.00 Build 0)  -->
<svg version="1.1" id="Layer_1" xmlns="http://www.w3.org/2000/svg" xmlns:xlink="http://www.w3.org/1999/xlink" x="0px" y="0px"
	 viewBox="488 -130.5 972 420" style="enable-background:new 488 -130.5 972 420;" xml:space="preserve">
<style type="text/css">
	.st0{fill:#282828;}
	.st1{fill:#686868;}
	.st2{fill:#EBEBEB;}
	.st3{fill:#020202;}
	.st4{fill:#FFFFFF;}
	.st5{fill:#151515;}
	.st6{fill:#6B6A66;}
</style>
<g>
	<polygon class="st0" points="515.1,257 488,-46.7 785.5,-46.7 758.4,256.9 636.5,290.7 	"/>
	<polygon class="st1" points="636.7,264.9 735.2,237.6 758.3,-21.8 636.7,-21.8 	"/>
	<polygon class="st2" points="636.7,90.8 587.5,90.8 584,52.7 636.7,52.7 636.7,15.4 636.6,15.4 543.3,15.4 544.2,25.4 553.4,128 
		636.7,128 	"/>
	<polygon class="st2" points="636.7,187.5 636.6,187.5 595.1,176.3 592.4,146.6 572.3,146.6 555.1,146.6 560.3,205.1 636.6,226.3 
		636.7,226.2 	"/>
	<g>
		<path class="st3" d="M515.7-129.2h18.9v18.7h17.3v-18.7h18.9v56.6h-18.9v-19h-17.3v19h-18.9V-129.2L515.7-129.2z"/>
		<path class="st3" d="M595.7-110.4h-16.7v-18.8h52.3v18.8h-16.7v37.8h-18.9L595.7-110.4L595.7-110.4z"/>
		<path class="st3" d="M639.6-129.2h19.7l12.1,19.9l12.1-19.9h19.7v56.6h-18.8v-28.1l-13,20.1h-0.3l-13-20.1v28.1h-18.5L639.6-129.2
			L639.6-129.2z"/>
		<path class="st3" d="M712.8-129.2h18.9v37.9h26.6v18.7h-45.5L712.8-129.2L712.8-129.2z"/>
	</g>
	<polygon class="st4" points="636.6,90.8 636.6,128 682.5,128 678.1,176.3 636.6,187.5 636.6,226.3 712.9,205.1 713.5,198.8 
		722.2,100.8 723.2,90.8 713.1,90.8 	"/>
	<polygon class="st4" points="636.6,15.4 636.6,38.5 636.6,52.6 636.6,52.7 726.4,52.7 726.4,52.7 726.5,52.7 727.3,44.3 729,25.4 
		729.9,15.4 	"/>
</g>
<g>
	<g>
		<polygon class="st5" points="1058.6,-113.6 1034,-113.6 1059.6,-85.8 1059.6,-72.5 1006.7,-72.5 1006.7,-88 1032.4,-88 
			1006.7,-115.9 1006.7,-129.2 1058.6,-129.2 		"/>
		<polygon class="st5" points="996.3,-113.6 971.6,-113.6 997.3,-85.8 997.3,-72.5 944.4,-72.5 944.4,-88 970,-88 944.4,-115.9 
			944.4,-129.2 996.3,-129.2 		"/>
		<polygon class="st5" points="934.5,-113 907.9,-113 907.9,-88.7 934.5,-88.7 934.5,-72.5 888.9,-72.5 888.9,-129.2 934.5,-129.2 
					"/>
	</g>
	<polygon class="st0" points="852.6,257 825.5,-46.6 1123,-46.6 1095.9,256.9 974.1,290.7 	"/>
	<polygon class="st1" points="974.3,264.9 1072.7,237.6 1095.9,-21.8 974.3,-21.8 	"/>
	<g>
		<polygon class="st4" points="974.3,88.2 1023.6,88.2 1027,50.1 974.3,50.1 974.3,12.8 974.4,12.8 1067.7,12.8 1066.8,22.8 
			1057.6,125.4 974.3,125.4 		"/>
		<polygon class="st2" points="974.5,184.9 974.3,185 932.9,173.8 930.2,144.1 910.1,144.1 892.8,144.1 898,202.5 974.3,223.7 
			974.5,223.7 		"/>
		<polygon class="st4" points="1020.4,123.9 1015.9,173.7 974.4,184.9 974.4,223.7 1050.7,202.5 1051.3,196.2 1057.7,123.9 		"/>
		<polygon class="st2" points="974.4,12.8 974.4,36 974.4,50 974.4,50.1 884.6,50.1 884.6,50.1 884.5,50.1 883.7,41.7 882,22.8 
			881.1,12.8 		"/>
		<polygon class="st2" points="974.3,88.2 974.3,111.3 974.3,125.3 974.3,125.4 933.4,125.4 933.4,125.4 933.3,125.4 932.6,117.1 
			930.9,98.2 930,88.2 		"/>
	</g>
</g>
<g>
	<polygon class="st0" points="1189.6,255.8 1162.6,-47.9 1460,-47.9 1432.9,255.7 1311.1,289.5 	"/>
	<polygon class="st6" points="1311,263.3 1409.5,236 1432.6,-23.4 1311,-23.4 	"/>
	<g>
		<polygon class="st5" points="1364.2,-114.9 1339.5,-114.9 1365.2,-87.1 1365.2,-73.8 1312.3,-73.8 1312.3,-89.3 1338,-89.3 
			1312.3,-117.2 1312.3,-130.5 1364.2,-130.5 		"/>
		<path class="st3" d="M1302.9-130.5v56.6h-45.5v-18.7h26.6v-37.9H1302.9L1302.9-130.5z"/>
	</g>
	<polygon class="st2" points="1311,185.9 1310.8,186 1269.3,174.8 1266.7,145.1 1246.5,145.1 1229.3,145.1 1234.5,203.5 
		1310.8,224.7 1311,224.7 	"/>
	<polygon class="st2" points="1316,126.4 1316,89.2 1270.1,89.2 1275.5,30.8 1316.1,29.7 1316,-9 1241.8,-9 1239.1,18.4 
		1230.3,116.4 1229.4,126.4 1239.5,126.4 	"/>
	<polygon class="st4" points="1315.7,29.7 1315.9,29.7 1356.6,32.1 1360,70.6 1380.2,70.6 1397.4,70.6 1390.9,-1.4 1315.9,-9.1 
		1315.7,-9 	"/>
	<polyline class="st4" points="1393.6,29.8 1390.4,-9 1311.8,-9 1311.8,15.1 1311.8,29.7 1311.8,29.8 1393.6,29.8 	"/>
	<polygon class="st4" points="1310.8,89.2 1310.8,126.5 1356.7,126.5 1352.4,174.7 1310.8,186 1310.8,224.7 1387.2,203.5 
		1387.7,197.3 1396.5,99.2 1397.4,89.2 1387.4,89.2 	"/>
	<path class="st4" d="M1388.8,28.2"/>
</g>
</svg>
