<?xml version="1.0" encoding="utf-8"?>
<!-- Generator: Adobe Illustrator 19.0.0, SVG Export Plug-In . SVG Version: 6.00 Build 0)  -->
<svg version="1.1" id="Layer_1" xmlns="http://www.w3.org/2000/svg" xmlns:xlink="http://www.w3.org/1999/xlink" x="0px" y="0px"
	 viewBox="260 201 1000 1000" style="enable-background:new 260 201 1000 1000;" xml:space="preserve">
<style type="text/css">
	.st0{fill:#FFFFFF;}
</style>
<path class="st0" d="M260,701c0-138,48.8-255.8,146.5-353.5S622,201,760,201s255.8,48.8,353.5,146.5S1259.9,563,1259.9,701
	s-48.8,255.8-146.5,353.5c-97.6,97.7-215.5,146.5-353.5,146.5s-255.8-48.8-353.5-146.5S260,839,260,701L260,701z M484.6,726.4
	c1.3,5.2,4.2,9.4,8.8,12.7s9.4,4.9,14.6,4.9l56.6-9.8c6.5-1.3,11.4-3.9,14.6-7.8s4.9-8.5,4.9-13.7c-1.3-5.2-4.6-9.8-9.8-13.7
	c-2.6-1.3-6.5-2-11.7-2h-3.9l-56.6,9.8c-5.2,0-9.8,2-13.7,5.9S483.3,721.1,484.6,726.4L484.6,726.4z M485.6,555.5
	c-2,4.6-1.6,9.4,1,14.6c2.6,5.2,6.5,9.1,11.7,11.7l50.8,21.5c6.5,2.6,12.4,3.3,17.6,2s8.5-4.6,9.8-9.8c2.6-5.2,2.6-10.1,0-14.6
	s-6.5-8.1-11.7-10.7l-50.8-23.4c-2.6-1.3-5.9-2-9.8-2h-5.9C491.8,547.3,487.5,550.9,485.6,555.5L485.6,555.5z M586.2,441.2
	c-1.3,5.2,0,10.4,3.9,15.6l31.2,46.9c2.6,5.2,6.8,8.8,12.7,10.7s10.7,1,14.6-2.9c3.9-2.6,6.2-6.5,6.8-11.7s-0.3-10.4-2.9-15.6
	l-31.2-48.8c-2.6-5.2-6.5-8.5-11.7-9.8h-5.9c-3.9,0-7.2,0.7-9.8,2C590.1,431.5,587.5,436,586.2,441.2L586.2,441.2z M631.1,732.2
	c10.4,22.1,20.2,41.7,29.3,58.6c6.5,14.3,11.1,26.7,13.7,37.1c1.3,5.2,2.9,13,4.9,23.4c2,10.4,4.2,18.9,6.8,25.4
	c1.3,3.9,4.6,6.5,9.8,7.8h128.9c3.9-1.3,7.2-3.9,9.8-7.8c2.6-6.5,4.9-15.9,6.8-28.3s3.6-19.2,4.9-20.5c2.6-10.4,7.2-22.8,13.7-37.1
	l29.3-58.6c24.7-54.7,28-102.2,9.8-142.6c-7.8-15.6-18.2-29-31.2-40c-13-11.1-29-19.5-47.8-25.4c-18.9-5.9-38.7-8.8-59.6-8.8h-2
	c-41.7,0-76.8,11.1-105.5,33.2C603.1,598.1,595.9,659.3,631.1,732.2L631.1,732.2z M683.8,1003.7c0,6.5,3.3,9.8,9.8,9.8h132.8
	c6.5,0,9.8-3.3,9.8-9.8v-23.4c0-6.5-3.3-9.8-9.8-9.8H693.6c-6.5,0-9.8,3.3-9.8,9.8V1003.7z M683.8,939.2c0,6.5,3.3,9.8,9.8,9.8
	h132.8c6.5,0,9.8-3.3,9.8-9.8v-23.4c0-6.5-3.3-9.8-9.8-9.8H693.6c-6.5,0-9.8,3.3-9.8,9.8V939.2z M742.4,466.6
	c0,5.2,1.6,10.1,4.9,14.6c3.3,4.6,7.8,6.8,13.7,6.8s10.4-2.3,13.7-6.8c3.3-4.6,4.9-9.4,4.9-14.6V410c0-6.5-1.6-11.7-4.9-15.6
	s-7.5-5.9-12.7-5.9h-2c-5.2,0-9.1,2-11.7,5.9c-3.9,3.9-5.9,9.1-5.9,15.6L742.4,466.6L742.4,466.6z M864.5,499.8
	c0.7,5.2,2.9,9.1,6.8,11.7c3.9,3.9,8.8,4.9,14.6,2.9c5.9-2,10.1-5.5,12.7-10.7l31.2-46.9c6.5-11.7,5.2-21.5-3.9-29.3
	c-2.6-1.3-5.9-2-9.8-2h-5.9c-5.2,1.3-9.1,4.6-11.7,9.8l-31.2,48.8C864.8,489.4,863.8,494.6,864.5,499.8L864.5,499.8z M935.7,712.7
	c0,5.2,1.6,9.8,4.9,13.7c3.3,3.9,8.1,6.5,14.6,7.8l56.6,9.8c5.2,0,10.1-1.6,14.6-4.9c4.6-3.3,7.5-7.5,8.8-12.7s0-9.8-3.9-13.7
	c-3.9-3.9-8.5-5.9-13.7-5.9l-56.6-9.8h-5.9c-3.9,0-7.2,0.7-9.8,2C940.3,702.9,937,707.5,935.7,712.7L935.7,712.7z M943.6,595.5
	c1.3,5.2,4.6,8.5,9.8,9.8c5.2,1.3,11.1,0.7,17.6-2l50.8-21.5c5.2-2.6,9.1-6.5,11.7-11.7s2.9-10.1,1-14.6s-6.2-8.1-12.7-10.7h-5.9
	c-3.9,0-7.2,0.7-9.8,2l-50.8,23.4c-5.2,2.6-9.1,6.2-11.7,10.7C940.9,585.4,940.9,590.3,943.6,595.5L943.6,595.5z"/>
</svg>
