<?xml version="1.0" encoding="utf-8"?>
<!-- Generator: Adobe Illustrator 19.0.0, SVG Export Plug-In . SVG Version: 6.00 Build 0)  -->
<svg version="1.1" id="Layer_1" xmlns="http://www.w3.org/2000/svg" xmlns:xlink="http://www.w3.org/1999/xlink" x="0px" y="0px"
	 viewBox="0 0 79.3 14.3" style="enable-background:new 0 0 79.3 14.3;" xml:space="preserve">
<style type="text/css">
	.st0{fill:#FFFFFF;}
</style>
<g id="XMLID_119_">
	<path id="XMLID_120_" class="st0" d="M11.2,6.4c0-0.2,0-0.5-0.1-0.7c-0.2-0.6-0.3-1-0.3-1.2c0-0.8,0.1-1.5,0.2-2.1
		c0.2-1,0.6-1.5,1.1-1.7c0.1,0,0.2,0.1,0.3,0.1C12.4,1,12.5,1,12.6,1.1c0.1,0.1,0.1,0.3,0.1,0.5c0,0.2,0,0.4,0,0.6v0.4
		c0,0.7,0,1.2-0.1,1.7c0,0.5-0.1,0.9-0.3,1.3c0.1,0.3,0.1,0.5,0.2,0.7c0.1,0.3,0.1,0.5,0.1,0.7c0,0.1,0,0.1,0,0.2
		c0,0.1-0.1,0.1-0.1,0.2l-0.4,0.1c-0.3,1-0.5,1.7-0.7,2.1c-0.4,0.9-0.9,1.4-1.5,1.4c-0.5,0-0.9-0.6-1.4-1.7c-0.3-0.6-0.6-1.7-1-3.3
		C7.3,4.5,7,3.8,6.9,3.6C6.6,3.9,6,4.7,5.2,6C4.3,7.3,3.6,8.6,3,9.8c-0.7,1.4-1.1,2.3-1.1,2.7c0,0.1-0.1,0.3-0.3,0.5
		s-0.4,0.3-0.5,0.3L0.6,13c-0.1-0.2-0.1-0.3-0.1-0.5c0-0.3,0.6-1.4,1.7-3.3c1.1-1.8,2.2-3.5,3.3-5.1c1.2-1.8,2-2.6,2.3-2.6
		c0.3,0,0.6,0.6,1,1.7C9,3.8,9.4,4.9,9.9,6.4c0.4,1.4,0.7,2.2,0.9,2.5C11,8.2,11.2,7.3,11.2,6.4z"/>
	<path id="XMLID_122_" class="st0" d="M16.4,5.8c0,0.1-0.2,0.6-0.6,1.3S15.2,8.6,15.2,9c0,0.1,0,0.3,0.1,0.3c0,0.1,0.1,0.1,0.3,0.1
		c0.1,0,0.3-0.1,0.5-0.2S16.4,9,16.5,9c0.2,0,0.2,0.1,0.2,0.2c0,0.3-0.2,0.5-0.6,0.8c-0.3,0.2-0.6,0.3-1,0.4c-0.1,0-0.2,0.1-0.4,0.2
		c-0.2,0.1-0.3,0.1-0.5,0.1c-0.2,0-0.4-0.1-0.6-0.3c-0.2-0.2-0.2-0.4-0.2-0.7c0-0.2,0-0.3,0-0.4c0-0.1,0.1-0.3,0.1-0.4l0.9-2.3
		c0.1-0.2,0.2-0.4,0.2-0.5c0.1-0.1,0.2-0.2,0.4-0.2s0.4-0.2,0.6-0.3c0,0,0.1-0.1,0.2-0.1c0.1,0,0.2-0.1,0.2-0.1c0.1,0,0.2,0,0.2,0.1
		S16.4,5.7,16.4,5.8z M14.9,4.8c0-0.1,0-0.1,0.1-0.2s0.1-0.1,0.1-0.2L15.3,4c0-0.1,0.2-0.2,0.5-0.3c0.3-0.1,0.5-0.2,0.7-0.2
		c0.3,0,0.4,0.1,0.4,0.4c0,0.1,0,0.2-0.1,0.3c0,0.1-0.1,0.2-0.1,0.2c-0.1,0.2-0.2,0.3-0.2,0.4C16.4,4.9,16.3,5,16.1,5
		c-0.2,0-0.4,0.1-0.5,0.1c-0.2,0-0.3,0-0.4,0c-0.1,0-0.2,0-0.2-0.1C14.9,4.9,14.9,4.9,14.9,4.8z"/>
	<path id="XMLID_125_" class="st0" d="M17.3,10.8l-0.2-0.1L17,10.4c0-0.2,0.1-0.3,0.1-0.4s0.1-0.2,0.1-0.4l1.4-3.8
		c0.1-0.3,0.4-1,0.9-2.1C20,2.6,20.3,2,20.4,2c0.1-0.1,0.3-0.3,0.6-0.5c0.3-0.2,0.5-0.3,0.8-0.4C21.9,1.2,22,1.3,22,1.4
		c0.1,0.1,0.2,0.2,0.2,0.4c0,0.2-0.2,0.6-0.5,1.2c-0.3,0.6-0.7,1.3-1,2c-0.4,0.8-0.7,1.4-0.8,1.7c0.6-0.5,1-0.8,1.4-1.1
		c0.6-0.4,1.1-0.6,1.6-0.6c0.2,0,0.4,0.1,0.6,0.3c0.1,0.2,0.2,0.4,0.2,0.7c0,0.3-0.3,0.7-0.9,1.4s-1,1-1.2,1c0,0-0.1,0-0.1-0.1
		c0,0-0.1,0-0.1-0.1l-0.1-0.2c0-0.2,0.2-0.4,0.4-0.6c0.2-0.2,0.4-0.5,0.4-0.6l-0.1-0.3l-0.3-0.1c-0.2,0.1-0.5,0.1-0.7,0.3
		c-0.2,0.1-0.4,0.3-0.6,0.5c0.2,0,0.3,0.1,0.4,0.2c0.1,0.7,0.3,1.2,0.5,1.5c0.3,0.5,0.7,0.7,1.3,0.7l0.3,0c0.1-0.1,0.2-0.2,0.3-0.2
		C23.2,9.1,23.3,9,23.4,9l0.2,0.1c0,0.1,0.1,0.1,0.1,0.2c0,0.3-0.3,0.6-1,1c-0.6,0.4-1.1,0.5-1.4,0.5c-0.6,0-1.1-0.4-1.4-1
		c-0.2-0.4-0.3-1-0.5-1.8c-0.2,0.6-0.4,1.2-0.7,1.8C18.4,10.3,18,10.6,17.3,10.8z"/>
	<path id="XMLID_127_" class="st0" d="M24.2,10.7c-0.2,0-0.3-0.1-0.4-0.3c-0.1-0.2-0.2-0.4-0.2-0.7c0-0.8,0.6-1.7,1.9-2.8
		s2.3-1.6,3.1-1.6c0.3,0,0.5,0.1,0.8,0.2C29.8,5.7,30,5.8,30,6.1c0,0.3-0.2,0.9-0.5,1.8c-0.3,0.9-0.5,1.6-0.5,2.1
		c0,0.1,0,0.2,0.1,0.3c0.1,0.1,0.1,0.3,0.1,0.3c0,0.1-0.1,0.2-0.2,0.3c-0.1,0.1-0.2,0.1-0.3,0.1c-0.1,0-0.2,0-0.4,0
		c-0.2,0-0.3,0-0.4,0c-0.2,0-0.3-0.1-0.4-0.4c-0.1-0.3-0.1-0.6-0.1-1c0-0.1,0-0.2,0-0.3c0-0.1,0-0.2,0-0.3c-0.4,0.5-0.9,0.9-1.5,1.3
		C25.5,10.6,24.8,10.7,24.2,10.7z M25.6,9.5c0,0.1,0,0.2,0.1,0.2c0.4,0,1-0.5,1.8-1.4c0.8-0.9,1.3-1.6,1.3-1.9
		c0-0.1-0.1-0.1-0.2-0.1c-0.4,0-1,0.4-1.8,1.3C26,8.4,25.6,9,25.6,9.5z"/>
	<path id="XMLID_130_" class="st0" d="M39.5,2.7c0-0.5,0.4-1,1.1-1.4c0.6-0.4,1.2-0.5,1.8-0.5c0.5,0,0.8,0.1,1,0.4
		c0.1,0.2,0.2,0.6,0.3,1.2l-0.1,0.2l-0.2,0.1c-0.2,0-0.6-0.2-1.1-0.5C42,2,41.7,1.9,41.5,1.8c0,0-0.1,0-0.2,0.1
		C41.3,2,41.3,2,41.3,2.1c0,0.4,0.3,1,0.9,1.8s0.9,1.3,0.9,1.4c0,0.3-0.2,0.5-0.7,0.7c-0.4,0.1-0.7,0.2-1.1,0.2
		C41.2,6.1,40.9,6,40.7,6c-0.2,0-0.5-0.1-0.7-0.1c-0.6,0-1.1,0.1-1.5,0.3C38,6.6,37.7,7,37.7,7.5c0,0.7,0.5,1.3,1.4,1.8
		c0.8,0.4,1.6,0.6,2.4,0.6c0.3,0,0.7-0.1,1.2-0.2c0.3-0.1,0.6-0.2,0.7-0.2l0.2,0.1l0.1,0.2c-0.2,0.4-0.8,0.7-1.9,0.9
		c-0.9,0.2-1.6,0.3-2.3,0.3c-1,0-1.8-0.2-2.4-0.7c-0.8-0.5-1.2-1.2-1.2-2.2c0-0.9,0.6-1.7,1.8-2.3c0.9-0.4,1.9-0.7,3-0.8
		c-0.4-0.5-0.6-0.9-0.8-1.1C39.6,3.5,39.5,3.1,39.5,2.7z"/>
	<path id="XMLID_132_" class="st0" d="M49.4,9.2c0,0.7-0.5,1.7-1.6,3.1c-1.1,1.3-1.9,2-2.6,2c-0.4,0-0.6-0.1-0.8-0.4
		c-0.2-0.3-0.3-0.8-0.3-1.5v-0.6c0-0.6,0.1-1.2,0.3-2c0.1-0.2,0.3-0.9,0.6-1.9c-0.2-0.1-0.4-0.1-0.5-0.2c-0.3-0.1-0.4-0.2-0.4-0.3
		c0-0.4,0.2-0.7,0.5-0.9c0.2-0.1,0.6-0.3,1-0.3c0.3-0.7,0.5-1.3,0.8-2c0.4-1,0.8-1.8,1.2-2.3c0.5-0.7,1.1-1.1,1.6-1.1
		c0.1,0,0.2,0,0.2,0.1c0,0.1,0.1,0.1,0.1,0.2c0,0.2,0,0.3,0,0.3c0,0.1,0,0.1,0,0.3c0,0.1,0,0.2,0,0.3c0,0.1,0,0.2-0.1,0.3
		c0,0.1-0.1,0.2-0.2,0.3c-0.1,0.1-0.2,0.2-0.3,0.2c-0.2,0.2-0.5,0.7-1,1.5C47.7,5,47.4,5.5,47.1,6c0.6-0.1,1.3-0.2,1.9-0.3
		c0,0,0.1,0,0.1,0s0.1,0,0.1,0.1L49.5,6c-0.1,0.4-0.3,0.7-0.8,0.9C48.4,7,48,7.1,47.4,7.1c-0.1,0-0.3,0-0.4,0c-0.1,0-0.3,0-0.4,0
		c0.8,0.1,1.4,0.3,1.8,0.6C49.1,8,49.4,8.5,49.4,9.2z M45.3,11.5c0,0.3,0,0.5,0.1,0.7c0.1,0.3,0.3,0.4,0.5,0.4c0.4,0,0.9-0.3,1.4-1
		C47.8,11,48,10.5,48,10c0-0.5-0.2-0.9-0.5-1.2c-0.3-0.2-0.7-0.4-1.3-0.6c-0.3,0.8-0.5,1.4-0.6,1.6C45.4,10.5,45.3,11.1,45.3,11.5z"
		/>
	<path id="XMLID_135_" class="st0" d="M50.3,10.7c-0.2,0-0.3-0.1-0.4-0.3c-0.1-0.2-0.2-0.4-0.2-0.7c0-0.8,0.6-1.7,1.9-2.8
		s2.3-1.6,3.1-1.6c0.3,0,0.5,0.1,0.8,0.2c0.4,0.1,0.5,0.3,0.5,0.5c0,0.3-0.2,0.9-0.5,1.8c-0.3,0.9-0.5,1.6-0.5,2.1
		c0,0.1,0,0.2,0.1,0.3c0.1,0.1,0.1,0.3,0.1,0.3c0,0.1-0.1,0.2-0.2,0.3c-0.1,0.1-0.2,0.1-0.3,0.1c-0.1,0-0.2,0-0.4,0
		c-0.2,0-0.3,0-0.4,0c-0.2,0-0.3-0.1-0.4-0.4s-0.1-0.6-0.1-1c0-0.1,0-0.2,0-0.3c0-0.1,0-0.2,0-0.3c-0.4,0.5-0.9,0.9-1.5,1.3
		C51.6,10.6,51,10.7,50.3,10.7z M51.7,9.5c0,0.1,0,0.2,0.1,0.2c0.4,0,1-0.5,1.8-1.4c0.8-0.9,1.3-1.6,1.3-1.9c0-0.1-0.1-0.1-0.2-0.1
		c-0.4,0-1,0.4-1.8,1.3C52.1,8.4,51.7,9,51.7,9.5z"/>
	<path id="XMLID_138_" class="st0" d="M61.4,5.4c0.2,0,0.4,0.1,0.5,0.3C62,5.9,62,6.1,62,6.3c0,0.4-0.1,0.9-0.3,1.5
		c-0.2,0.7-0.3,1.1-0.3,1.5c0,0,0,0.1,0.1,0.3c0.1,0.1,0.1,0.2,0.1,0.3c0,0.1-0.2,0.3-0.6,0.6c-0.4,0.2-0.7,0.3-0.9,0.3
		c-0.2,0-0.3-0.1-0.4-0.3s-0.1-0.5-0.1-0.7c0-0.3,0.1-0.6,0.2-1c0.4-1,0.6-1.5,0.6-1.6L60.4,7C60.3,7,60,7.3,59.5,8
		c-0.6,0.8-1.1,1.6-1.7,2.4c-0.3,0.1-0.6,0.2-0.9,0.4c0,0-0.1-0.1-0.3-0.2s-0.2-0.2-0.2-0.3c0-0.2,0.2-1,0.6-2.2s0.6-2,0.8-2.2
		c0,0,0.2-0.1,0.4-0.2c0.3-0.1,0.4-0.2,0.5-0.2c0.1,0,0.2,0,0.3,0.1c0.1,0.1,0.2,0.1,0.3,0.2c0,0.1,0.1,0.1,0.1,0.2
		c0,0.1-0.1,0.3-0.2,0.6c-0.2,0.4-0.3,0.6-0.3,0.7l-0.5,1.1c0.4-0.5,0.8-1.1,1.3-1.6C60.4,5.8,61,5.4,61.4,5.4z"/>
	<path id="XMLID_140_" class="st0" d="M66.3,4.9c0.2,0,0.4,0.2,0.7,0.5c0.3,0.4,0.4,0.7,0.4,0.9c0,0.6-0.1,1.2-0.2,1.8
		c-0.1,0.6-0.6,1.2-1.3,1.8c-0.7,0.6-1.4,0.9-2.1,0.9c-0.3,0-0.6-0.1-0.9-0.3c-0.3-0.2-0.4-0.5-0.4-0.8c0-0.3,0-0.6,0.1-1
		C62.7,8.3,62.8,8,63,7.8c0.3-0.4,0.6-0.8,1-1.3c0.5-0.5,1-0.8,1.3-0.9c0.1-0.2,0.2-0.3,0.4-0.5C65.9,5,66.1,4.9,66.3,4.9z
		 M64.3,9.3c0,0.1,0,0.2,0.1,0.3c0,0.1,0.1,0.2,0.2,0.2c0.3,0,0.5-0.1,0.8-0.4c0.4-0.4,0.7-0.8,0.9-1.4c-0.4-0.4-0.7-0.8-0.9-1.4
		c-0.2,0.3-0.5,0.7-0.7,1.3C64.5,8.5,64.3,8.9,64.3,9.3z"/>
	<path id="XMLID_143_" class="st0" d="M69.8,10.6c-0.2,0.1-0.3,0.1-0.5,0.1s-0.3,0.1-0.4,0.1c-0.3,0-0.6-0.2-0.8-0.5
		c-0.2-0.4-0.3-0.7-0.3-1.1c0-0.3,0.1-0.7,0.2-1.1c0.1-0.3,0.3-0.6,0.5-1c-0.1-0.1-0.1-0.3-0.1-0.4c0-0.2,0.3-0.4,0.8-0.6
		c0.5-0.3,0.8-0.4,1-0.4c0.1,0,0.2,0,0.2,0.1s0.1,0.2,0.1,0.3c-0.3,0.6-0.5,1.1-0.7,1.5c-0.2,0.5-0.3,1-0.3,1.3c0,0.2,0,0.4,0.1,0.5
		c0.1,0.2,0.2,0.2,0.4,0.2c0.2,0,0.4-0.1,0.6-0.2C70.9,9.2,71,9.1,71,8.9c0-0.2,0-0.4-0.1-0.8c-0.1-0.4-0.1-0.6-0.1-0.9
		c0-0.6,0.1-1,0.3-1.2c0.2-0.3,0.5-0.5,1-0.7c0.1,0,0.3,0.1,0.3,0.2C72.5,5.8,72.5,6,72.5,6c0,0.2,0.1,0.4,0.1,0.5V7
		c0,0.5,0,0.8-0.1,1.1c-0.1,0.4-0.3,0.6-0.6,0.7c-0.2,0.5-0.5,0.9-0.8,1.1C70.8,10.2,70.4,10.4,69.8,10.6z"/>
	<path id="XMLID_145_" class="st0" d="M73.2,10.7c-0.2,0-0.3-0.1-0.4-0.3c-0.1-0.2-0.2-0.4-0.2-0.7c0-0.8,0.6-1.7,1.9-2.8
		s2.3-1.6,3.1-1.6c0.3,0,0.5,0.1,0.8,0.2C78.8,5.7,79,5.8,79,6.1c0,0.3-0.2,0.9-0.5,1.8c-0.3,0.9-0.5,1.6-0.5,2.1
		c0,0.1,0,0.2,0.1,0.3c0.1,0.1,0.1,0.3,0.1,0.3c0,0.1-0.1,0.2-0.2,0.3c-0.1,0.1-0.2,0.1-0.3,0.1c-0.1,0-0.2,0-0.4,0
		c-0.2,0-0.3,0-0.4,0c-0.2,0-0.3-0.1-0.4-0.4s-0.1-0.6-0.1-1c0-0.1,0-0.2,0-0.3c0-0.1,0-0.2,0-0.3c-0.4,0.5-0.9,0.9-1.5,1.3
		C74.4,10.6,73.8,10.7,73.2,10.7z M74.5,9.5c0,0.1,0,0.2,0.1,0.2c0.4,0,1-0.5,1.8-1.4c0.8-0.9,1.3-1.6,1.3-1.9
		c0-0.1-0.1-0.1-0.2-0.1c-0.4,0-1,0.4-1.8,1.3C74.9,8.4,74.5,9,74.5,9.5z"/>
</g>
</svg>
