<?xml version="1.0" encoding="utf-8"?>
<!-- Generator: Adobe Illustrator 18.1.1, SVG Export Plug-In . SVG Version: 6.00 Build 0)  -->
<svg version="1.1" id="Layer_1" xmlns="http://www.w3.org/2000/svg" xmlns:xlink="http://www.w3.org/1999/xlink" x="0px" y="0px"
	 width="595.3px" height="548.9px" viewBox="0 148 595.3 548.9" enable-background="new 0 148 595.3 548.9" xml:space="preserve">
<g>
	<g>
		<g>
			<defs>
				<rect id="SVGID_1_" y="148" width="595.3" height="545.9"/>
			</defs>
			<clipPath id="SVGID_2_">
				<use xlink:href="#SVGID_1_"  overflow="visible"/>
			</clipPath>
			<path clip-path="url(#SVGID_2_)" fill="#F1BA1B" d="M251.2,148C101.9,207.3,0,349.8,0,497c0,113.9,67.8,196.9,158.4,196.9
				c67.8,0,122.1-52.2,122.1-116.3c0-61.7-42.9-106.8-101.8-106.8c-24.9,0-33.9,7.1-54.3,7.1c-22.6,0-31.6-21.4-31.6-49.9
				c0-85.4,61.1-168.5,174.3-237.3L251.2,148z"/>
		</g>
		<g>
			<defs>
				<rect id="SVGID_3_" y="148" width="595.3" height="545.9"/>
			</defs>
			<clipPath id="SVGID_4_">
				<use xlink:href="#SVGID_3_"  overflow="visible"/>
			</clipPath>
			<path clip-path="url(#SVGID_4_)" fill="#F1BA1B" d="M565.8,148c-149.3,59.3-251.1,201.8-251.1,349
				c0,113.9,67.8,196.9,158.3,196.9c67.9,0,122.3-52.2,122.3-116.3c0-61.7-43-106.8-101.8-106.8c-24.9,0-33.9,7.1-54.3,7.1
				c-22.6,0-31.6-21.4-31.6-49.9c0-85.4,61.1-168.5,174.3-237.3L565.8,148z"/>
		</g>
	</g>
</g>
</svg>
